<?xml version="1.0" encoding="utf-8" ?><svg xmlns="http://www.w3.org/2000/svg" xmlns:xlink="http://www.w3.org/1999/xlink" width="500" height="136" viewBox="0 0 500 136"><path d="M14.9061 99.1344C14.4118 99.5574 14.0698 99.9349 13.4205 100.005C13.433 99.4005 52.9344 39.9552 55.7871 35.6532L62.4071 25.7145C63.6539 23.8523 65.5546 21.1918 66.4936 19.2968C68.3962 22.5385 71.1441 26.5345 73.2082 29.7446L85.9853 49.6225C87.6133 52.137 92.5273 59.3486 93.4848 61.6553C96.2794 56.1594 103.376 48.0448 105.678 43.2562C113.633 56.128 121.682 68.9422 129.823 81.6978L137.454 93.8574C138.979 96.2856 141.144 99.5315 142.393 102.025C139.524 99.4206 137.196 96.1488 134.378 93.4407C130.686 89.8943 126.225 87.1971 122.66 83.5516C120.067 80.9005 107.48 60.9252 105.741 57.2689C102.177 63.4497 96.6817 69.7958 93.0698 76.1095C86.5708 65.8933 80.1377 55.6353 73.7708 45.3363C72.7453 43.6922 67.5039 34.8926 66.6282 34.0812L66.1617 34.2527C64.9489 36.648 61.9719 40.9619 60.4279 43.3259L50.1151 59.1625L40.7121 73.6237C39.273 75.8356 36.7837 79.8734 35.1519 81.6885C34.211 82.7351 30.6524 85.6592 29.4272 86.7013L18.7038 95.8058C18.1329 96.291 15.149 98.738 14.9061 99.1344Z"/><path fill="#FE5A01" d="M211.135 69.6011C211.599 69.5654 212.064 69.5643 212.528 69.5978C224.747 70.3748 225.021 79.6219 224.716 89.1955C224.272 103.102 207.596 104.958 200.023 96.0272C200.222 99.0352 200.244 101.077 200.234 104.098C200.222 106.472 200.23 108.845 200.257 111.219L194.237 111.237C194.158 106.719 193.598 71.5345 194.547 70.2761C195.61 69.911 197.053 70.1062 198.203 70.1834C198.555 72.135 198.974 74.1751 199.047 76.1485C199.319 75.7854 199.601 75.4299 199.892 75.0821C203.184 71.1615 206.246 70.04 211.135 69.6011ZM209.857 96.6891C212.342 96.6285 214.388 96.4995 216.172 94.522C219.64 90.6769 219.722 79.7844 215.889 76.1327C214.315 74.6335 211.68 74.0429 209.602 74.346C202.226 74.994 199.583 80.5624 200.246 87.3555C200.808 93.1132 204.181 96.2416 209.857 96.6891Z"/><path d="M70.6329 87.8481C72.2234 87.5879 75.6383 87.6898 77.3075 87.7024C101.418 87.8838 128.086 104.743 138.123 127.001C135.722 124.548 133.977 122.008 131.215 119.438C118.249 107.374 104.242 100.746 86.9598 97.829C86.8033 97.7912 86.6452 97.7603 86.4859 97.7364C65.9912 94.7233 45.1097 99.4681 27.9294 111.042C25.3342 112.855 22.8361 114.804 20.4455 116.88C18.5891 118.524 16.9025 120.263 14.9097 121.741C28.0081 101.362 46.7042 90.2459 70.6329 87.8481Z"/><path d="M279.971 69.6043C292.395 70.1682 294.935 76.2263 294.967 87.3889C287.782 87.1748 277.917 87.8584 271.093 87.2951C271.321 88.6831 271.398 90.5792 271.812 91.8798C272.352 93.6294 273.572 95.089 275.198 95.9309C278.179 97.4674 283.116 97.1552 285.868 95.1998C287.593 93.9735 287.99 93.0385 288.915 91.2234C290.9 91.4696 292.731 91.5048 294.729 91.5668C292.556 98.6297 287.669 100.963 280.693 101.413C272.061 101.791 265.555 98.2496 265.093 88.8949C264.509 77.0606 266.775 70.3136 279.971 69.6043ZM282.938 83.5173L289.322 83.49C288.017 75.5208 285.239 73.9852 277.283 74.5421C272.204 76.5176 271.794 78.3929 271.088 83.5323L282.938 83.5173Z"/><path d="M433.381 69.8197C434.394 69.7323 435.41 69.6934 436.426 69.7033C442.169 69.7655 446.851 71.6169 449.458 77.1017C451.083 80.5198 450.842 83.6764 450.79 87.3167C443.386 87.1539 434.426 87.6895 427.172 87.229C427.211 88.1881 427.378 90.5503 427.618 91.4265C428.128 93.3087 429.367 94.9098 431.062 95.875C435.479 98.3391 441.892 97.0021 444.455 92.3378C444.485 92.0298 444.702 91.8488 444.914 91.6021C445.903 91.3297 449.38 91.5896 450.63 91.6373C448.965 96.9743 445.399 99.9506 439.894 100.962C432.586 102.486 422.454 99.9885 421.437 91.2464C420.894 86.5737 420.608 78.9136 423.497 74.9657C425.981 71.5718 429.484 70.4756 433.381 69.8197ZM439.562 83.556C441.474 83.547 443.385 83.5256 445.296 83.4915C444.418 75.3254 440.787 73.9154 433.083 74.5615C427.952 76.5295 427.778 78.562 427.05 83.6831C430.66 83.4285 435.837 83.565 439.562 83.556Z"/><path fill="#FE5A01" d="M179.144 60.7657C181.171 60.8009 183.197 60.8525 185.223 60.9204C185.372 62.4568 185.364 64.0768 185.387 65.625C185.347 72.2617 186.13 87.5259 184.242 93.1087C183.23 96.1016 181.029 98.2947 178.217 99.6659C173.653 101.892 167.726 102.003 162.97 100.327C160.009 99.2834 157.529 97.326 156.182 94.4497C155.38 92.738 155.061 90.802 154.884 88.932C154.608 86.0187 154.239 62.822 154.933 60.8948C157.111 60.8288 158.696 60.7397 160.848 61.0375C161.69 70.5725 160.188 80.995 161.308 90.5472C162.256 98.6316 177.949 98.8215 178.832 90.0829C179.284 85.6141 179.218 82.0098 179.182 77.5033C179.135 71.9243 179.123 66.3449 179.144 60.7657Z"/><path d="M232.467 60.8801L234.78 61.0551C238.166 73.019 242.261 85.2065 245.832 97.1473C248.422 87.6379 251.449 78.1853 254.237 68.726C254.994 66.1577 255.825 63.4207 256.798 60.9408C258.647 60.8777 261.029 60.986 262.916 61.0194C262.406 63.2908 261.652 65.4946 260.896 67.6917C260.444 69.9615 258.32 76.2541 257.522 78.8179L250.655 100.946C247.985 101.042 243.451 100.935 240.825 100.734C239.969 97.2554 238.351 92.6394 237.254 89.0795C234.284 79.7424 231.401 70.3779 228.605 60.9872L232.467 60.8801Z"/><path d="M317.674 69.8046C318.434 69.7357 319.196 69.6868 319.959 69.6578C332.398 69.2916 331.349 80.9479 331.324 89.5458C331.28 93.3416 331.294 97.138 331.368 100.933C329.399 100.781 327.374 100.845 325.396 100.873C324.975 94.9614 326.375 80.8932 323.607 76.9582C322.722 75.6811 321.356 74.8188 319.823 74.5695C316.819 74.066 314.408 74.6535 311.972 76.3888C307.942 80.4798 308.446 86.4167 308.452 91.7602L308.476 100.922C306.467 100.894 304.457 100.88 302.447 100.88C302.11 97.6182 302.25 92.3981 302.257 89.0456L302.261 70.0755L306.8 70.1321C307.274 72.1759 307.508 74.6174 307.577 76.7109C310.607 72.2752 312.355 70.8231 317.674 69.8046Z"/><path d="M361.52 70.0171C363.337 70.2741 365.725 70.2263 367.55 70.1442C367.531 77.0199 367.244 84.2531 367.902 91.0328C368.608 94.5082 370.928 96.541 374.273 96.5608C383.398 96.6148 384.556 88.9868 384.369 81.7612C384.273 78.0468 384.386 73.7905 384.473 70.0624C386.656 70.1661 388.422 70.2233 390.595 70.0343C390.436 73.649 390.528 77.9001 390.521 81.5625L390.522 101.036C387.879 100.714 385.69 101.555 385.449 97.8822C385.376 96.7546 385.207 95.385 385.103 94.2386C382.212 99.5473 378.202 101.576 372.251 101.357C366.876 101.159 363.032 98.6122 361.935 93.1397C361.292 89.6347 361.504 85.9462 361.492 82.3802C361.478 78.3082 361.322 74.0734 361.52 70.0171Z"/><path d="M469.443 69.6069C475.86 69.1097 482.516 71.4535 483.685 78.4986C481.727 78.5749 479.769 78.6331 477.811 78.673C475.599 73.2062 469.451 72.0952 464.69 75.6889C464.114 76.1232 463.665 77.7203 463.799 78.422C465.079 85.1263 477.219 82.1052 481.449 86.7504C482.967 88.1309 483.619 89.6308 483.763 91.7184C484.318 99.788 476.773 101.108 470.524 101.411C462.955 101.365 458.587 99.4954 456.5 91.8341C458.537 91.7753 460.572 91.664 462.603 91.5004C462.974 92.6565 463.463 93.9679 464.26 94.9739C466.704 98.0584 474.006 97.8433 476.622 95.1669C477.661 94.008 477.749 91.55 476.509 90.5595C471.137 86.2663 458.313 88.9971 457.242 79.7964C456.309 71.7781 463.008 70.1216 469.443 69.6069Z"/><path d="M343.503 62.7221L347.584 62.7853C347.777 64.6744 347.711 68.0044 347.729 70.0012C350.116 70.1754 353.11 70.27 355.475 70.0557L355.437 74.5499L347.728 74.5398C347.718 79.9081 347.688 85.2913 347.71 90.6571C347.716 91.986 348.004 94.7881 349.059 95.681C350.435 96.8464 354.135 96.2954 355.828 96.1435C356.073 97.4663 356.45 99.0848 356.36 100.402C350.913 101.633 342.686 102.581 341.86 95.4009C341.147 89.2064 341.547 80.8574 341.512 74.5444C340.079 74.6729 337.642 74.525 336.123 74.4706C336.189 73.0643 336.106 71.5885 336.053 70.177C337.799 70.0566 340.075 70.0784 341.861 70.0448C342.294 67.5202 342.666 65.1494 343.503 62.7221Z"/><path d="M412.564 69.8112C415.095 69.5433 416.07 69.6362 418.475 70.1118C418.474 71.934 418.336 73.4731 418.178 75.2877C410.571 73.6286 406.062 76.9625 405.755 84.9029C405.549 90.2096 405.621 95.5744 405.574 100.89C403.483 100.745 401.941 100.774 399.839 100.84C399.358 99.1996 399.53 91.6651 399.533 89.5542C399.567 83.0778 399.553 76.6012 399.492 70.125L404.138 70.2367C404.568 72.5609 404.706 74.8797 404.867 77.2319C406.583 72.5855 407.968 71.2974 412.564 69.8112Z"/></svg>